<?xml version="1.0" standalone="no"?><!DOCTYPE svg PUBLIC "-//W3C//DTD SVG 1.1//EN" "http://www.w3.org/Graphics/SVG/1.1/DTD/svg11.dtd"><svg t="1510050921896" class="icon" style="" viewBox="0 0 1024 1024" version="1.1" xmlns="http://www.w3.org/2000/svg" p-id="12279" xmlns:xlink="http://www.w3.org/1999/xlink" width="16" height="16"><defs><style type="text/css"></style></defs><path d="M880.64 23.893333H153.6c-51.2 0-93.866667 42.666667-93.866667 93.866667v773.12c0 52.906667 42.666667 93.866667 93.866667 93.866667H880.64c52.906667 0 93.866667-42.666667 93.866667-93.866667V117.76c1.706667-51.2-40.96-93.866667-93.866667-93.866667z m-628.053333 68.266667h529.066666v211.626667h-529.066666V92.16z m529.066666 826.026667h-529.066666V706.56h529.066666v211.626667z m126.293334-27.306667c0 13.653333-11.946667 25.6-25.6 25.6h-30.72V672.426667c0-18.773333-15.36-34.133333-34.133334-34.133334h-597.333333c-18.773333 0-34.133333 15.36-34.133333 34.133334v245.76H153.6c-13.653333 0-25.6-11.946667-25.6-25.6V117.76c0-15.36 11.946667-25.6 25.6-25.6h30.72v245.76c0 18.773333 15.36 34.133333 34.133333 34.133333h597.333334c18.773333 0 34.133333-15.36 34.133333-34.133333V92.16h30.72c13.653333 0 25.6 11.946667 25.6 25.6v773.12z" p-id="12280"></path><path d="M815.786667 471.04H220.16c-18.773333 0-34.133333 15.36-34.133333 34.133333s15.36 34.133333 34.133333 34.133334h595.626667c18.773333 0 34.133333-15.36 34.133333-34.133334s-15.36-34.133333-34.133333-34.133333z" p-id="12281"></path></svg>