<?xml version="1.0" standalone="no"?><!DOCTYPE svg PUBLIC "-//W3C//DTD SVG 1.1//EN" "http://www.w3.org/Graphics/SVG/1.1/DTD/svg11.dtd"><svg t="1510107849851" class="icon" style="" viewBox="0 0 1024 1024" version="1.1" xmlns="http://www.w3.org/2000/svg" p-id="2880" xmlns:xlink="http://www.w3.org/1999/xlink" width="64" height="64"><defs><style type="text/css"></style></defs><path d="M996.969055 105.154376h-258.278147l-99.881202-97.270263A27.338063 27.338063 0 0 0 619.765213 0.000102h-215.530426a27.389258 27.389258 0 0 0-19.095688 7.679232l-99.881202 97.270263H26.979751a26.262971 26.262971 0 1 0 0 52.577137H296.469575a27.235674 27.235674 0 0 0 19.044493-7.730426l99.881202-97.270263h193.260655l99.881202 97.270263a27.338063 27.338063 0 0 0 19.044493 7.730426h269.489824a26.262971 26.262971 0 1 0 0-52.577137m-107.867602 183.584823a26.621335 26.621335 0 0 0-26.928505 26.262971v604.09953a53.34506 53.34506 0 0 1-53.908203 52.577137H215.581671a53.293865 53.293865 0 0 1-53.857008-52.577137v-604.09953a26.928504 26.928504 0 0 0-53.908204 0v604.09953c0 57.952599 48.379157 105.103079 107.765212 105.103079h592.836658c59.386055 0 107.816408-47.15048 107.816407-105.103079v-604.09953a26.621335 26.621335 0 0 0-26.928504-26.262971m-485.12264 551.368808V314.848586a26.928504 26.928504 0 0 0-53.908203 0v525.054642a26.928504 26.928504 0 0 0 53.908203 0m269.43863 0V314.848586a26.928504 26.928504 0 0 0-53.857009 0v525.054642a26.928504 26.928504 0 0 0 53.857009 0m0 0" p-id="2881"></path></svg>