<?xml version="1.0" standalone="no"?><!DOCTYPE svg PUBLIC "-//W3C//DTD SVG 1.1//EN" "http://www.w3.org/Graphics/SVG/1.1/DTD/svg11.dtd"><svg t="1510051151787" class="icon" style="" viewBox="0 0 1024 1024" version="1.1" xmlns="http://www.w3.org/2000/svg" p-id="16096" xmlns:xlink="http://www.w3.org/1999/xlink" width="16" height="16"><defs><style type="text/css"></style></defs><path d="M959.45216 842.74176v58.49088c0 33.26976-26.97216 60.2368-60.2368 60.2368h-56.74496c-33.25952 0-60.23168-26.96704-60.23168-60.2368v-0.8704H244.48v0.8704c0 33.26976-26.96192 60.2368-60.2368 60.2368H127.49824c-33.26464 0-60.23168-26.96704-60.23168-60.2368v-58.49088c0-32.68096 26.03008-59.25888 58.49088-60.19072V246.45632c-32.4608-0.93184-58.49088-27.50976-58.49088-60.19072V127.77472c0-33.26464 26.96704-60.23168 60.23168-60.23168h56.74496c32.68096 0 59.26912 26.03008 60.19072 58.49088h537.84064c0.92672-32.45568 27.50464-58.49088 60.19072-58.49088h56.73984c33.26976 0 60.24192 26.97216 60.24192 60.2368v58.49088c0 32.9728-26.50112 59.74528-59.3664 60.2112v536.04864c32.8704 0.46592 59.37152 27.2384 59.37152 60.2112M782.22848 186.26048v-0.87552H244.48v0.87552c0 32.9728-26.496 59.74528-59.36128 60.2112v536.04864c32.2816 0.4608 58.39872 26.30144 59.3152 58.4704h537.84064c0.91648-31.88224 26.5728-57.53344 58.44992-58.44992V246.4512c-32.45568-0.93184-58.496-27.50976-58.496-60.19072m-60.22656 178.96448h-119.59808v297.68704h59.3664v59.36128H364.07808v-59.36128h60.23168V365.22496H304.7168v59.36128H245.3504V305.85856h536.00768v118.72768h-59.36128V365.22496m0.00512 0z" fill="" p-id="16097"></path></svg>