<?xml version="1.0" standalone="no"?><!DOCTYPE svg PUBLIC "-//W3C//DTD SVG 1.1//EN" "http://www.w3.org/Graphics/SVG/1.1/DTD/svg11.dtd"><svg t="1510050792751" class="icon" style="" viewBox="0 0 1024 1024" version="1.1" xmlns="http://www.w3.org/2000/svg" p-id="11525" xmlns:xlink="http://www.w3.org/1999/xlink" width="16" height="16"><defs><style type="text/css"></style></defs><path d="M118.154 193.154h787.693v236.308H118.154V193.154z m-78.769-55.308v78.769H0v-78.769h39.385z m0 118.154v78.77H0V256h39.385z m0 118.154v78.769H0v-78.769h39.385z m0 118.154v78.769H0v-78.769h39.385z m0 118.154v78.768H0v-78.768h39.385z m0 118.153v78.77H0v-78.77h39.385z m0 118.155v78.768H0V846.77h39.385z m984.615 0v78.768h-39.385V846.77H1024z m0-118.155v78.77h-39.385v-78.77H1024z m0-118.153v78.768h-39.385v-78.768H1024z m0-118.154v78.769h-39.385v-78.769H1024z m0-118.154v78.769h-39.385v-78.769H1024zM1024 256v78.77h-39.385V256H1024z m0-118.154v78.769h-39.385v-78.769H1024zM39.385 98.461H0V0h39.385v98.461z m98.461-59.076H59.077V0h78.769v39.385z m118.154 0h-78.77V0H256v39.385z m118.154 0h-78.769V0h78.769v39.385z m118.154 0h-78.769V0h78.769v39.385z m118.154 0h-78.77V0h78.77v39.385z m118.153 0h-78.768V0h78.768v39.385z m118.155 0H768V0h78.77v39.385z m118.153 0h-78.77V0h78.77v39.385zM1024 98.461h-39.385V0H1024v98.461z m-39.385 866.462H1024V1024h-39.385v-59.077z m-98.462 19.692h78.77V1024h-78.77v-39.385z m-118.153 0h78.77V1024H768v-39.385z m-118.153 0h78.768V1024h-78.768v-39.385z m-118.155 0h78.77V1024h-78.77v-39.385z m-118.153 0h78.769V1024h-78.769v-39.385z m-118.154 0h78.769V1024h-78.769v-39.385z m-118.155 0H256V1024h-78.77v-39.385z m-118.153 0h78.769V1024H59.077v-39.385zM0 964.923h39.385V1024H0v-59.077z" p-id="11526"></path></svg>