<?xml version="1.0" standalone="no"?><!DOCTYPE svg PUBLIC "-//W3C//DTD SVG 1.1//EN" "http://www.w3.org/Graphics/SVG/1.1/DTD/svg11.dtd"><svg t="1510050231438" class="icon" style="" viewBox="0 0 1024 1024" version="1.1" xmlns="http://www.w3.org/2000/svg" p-id="9611" xmlns:xlink="http://www.w3.org/1999/xlink" width="16" height="16"><defs><style type="text/css"></style></defs><path d="M56.888889 910.222222h910.222222v56.888889H56.888889v-56.888889z m0-170.666666h910.222222v56.888888H56.888889v-56.888888z m625.777778-170.666667h284.444444v56.888889h-284.444444v-56.888889z m0-170.666667h284.444444v56.888889h-284.444444V398.222222z m0-170.666666h284.444444v56.888888h-284.444444V227.555556z m-56.888889 415.288888H551.822222l-51.2-142.222222H284.444444l-51.2 142.222222H159.288889l199.111111-517.688888h73.955556l193.422222 517.688888zM477.866667 443.733333L398.222222 227.555556c0-5.688889 0-17.066667-5.688889-34.133334 0 17.066667-5.688889 28.444444-5.688889 34.133334L307.2 443.733333h170.666667z" p-id="9612"></path></svg>