<?xml version="1.0" standalone="no"?><!DOCTYPE svg PUBLIC "-//W3C//DTD SVG 1.1//EN" "http://www.w3.org/Graphics/SVG/1.1/DTD/svg11.dtd"><svg t="1510050986989" class="icon" style="" viewBox="0 0 1170 1024" version="1.1" xmlns="http://www.w3.org/2000/svg" p-id="12933" xmlns:xlink="http://www.w3.org/1999/xlink" width="18.28125" height="16"><defs><style type="text/css"></style></defs><path d="M0 0v966.582857h1170.285714V0H0z m1101.970286 709.266286l-186.660572 190.171428H68.315429V69.485714h1033.654857v639.707429zM189.001143 241.078857c9.069714-32.475429 9.069714-32.475429 45.494857-32.475428h2.267429v185.417142c-2.194286 0-9.069714 2.340571-20.48 2.340572h-22.747429v50.980571H343.771429V396.434286h-22.674286c-11.483429 0-18.285714-2.340571-20.553143-2.340572V208.603429h13.677714c25.014857 0 27.282286 0 34.157715 32.475428l4.534857 23.186286 47.835428-11.629714-2.340571-27.794286c-2.194286-20.845714-4.534857-41.691429-2.194286-57.929143v-23.186286l-41.033143-2.340571-6.802285 9.289143H189.001143l-4.608-9.289143h-40.96v23.186286c0 18.578286-2.267429 44.032-4.534857 67.291428l-2.267429 25.453714h47.762286l4.608-16.237714z m648.118857 580.096l32.182857 32.841143 198.070857-201.654857-32.182857-32.768-198.070857 201.581714z" p-id="12934"></path></svg>