<?xml version="1.0" standalone="no"?><!DOCTYPE svg PUBLIC "-//W3C//DTD SVG 1.1//EN" "http://www.w3.org/Graphics/SVG/1.1/DTD/svg11.dtd"><svg t="1510051340579" class="icon" style="" viewBox="0 0 1024 1024" version="1.1" xmlns="http://www.w3.org/2000/svg" p-id="20510" xmlns:xlink="http://www.w3.org/1999/xlink" width="16" height="16"><defs><style type="text/css"></style></defs><path d="M315.8646875 933.9200000000001c-60.9965625 0-120.2953125-28.3940625-176.788125-84.73875000000001-139.125-139.125-126.20250000000001-311.5565625 35.409375000000004-473.131875 82.3753125-82.3753125 246.90468750000002-231.950625 253.84687499999998-238.265625 15.10125-13.696874999999999 38.473124999999996-12.553125000000001 52.171875 2.5125 13.69875 15.1003125 12.590625 38.435624999999995-2.510625 52.171875-1.69875 1.550625-170.1421875 154.670625-251.29875 235.828125C92.62812500000001 562.3625000000001 80.66562499999998 686.42375 191.24843750000002 797.009375c68.75156249999999 68.529375 119.926875 67.089375 152.3821875 60 46.0059375-9.969375 96.29531250000001-43.569374999999994 158.3259375-105.748125L836.5165625 416.665625c47.224687499999995-47.150625 70.8928125-87.2859375 70.37531249999999-119.2246875-0.515625-32.45625-27.691875-58.043437499999996-54.01875-82.78125-5.6850000000000005-5.390625-11.26125-10.5975-16.3565625-15.6928125-41.390625-41.5753125-73.4765625-37.92-96.9225-30.018750000000004-40.874062499999994 13.7728125-86.030625 55.275-120.7753125 89.908125L314.24 563.4340625000001c-18.904687499999998 18.904687499999998-31.0153125 40.0246875-34.1165625 59.4459375-3.13875 19.7165625 3.1753125 37.18125 19.3471875 53.353125 48.3328125 48.25875 110.2153125-12.515625 112.8375-15.10125L746.830625 326.571875c14.4375-14.436562499999999 37.771875-14.436562499999999 52.209374999999994 0s14.4375 37.771875 0 52.209374999999994L464.5165625 713.34125c-57.7471875 57.710625-150.94125 81.4528125-217.2553125 15.102187500000001-60.553125-60.55406249999999-54.609375-147.8775 14.769375-217.25625000000002L566.6468749999999 206.57187500000003c62.252812500000005-61.993125000000006 191.630625-190.8553125 322.190625-59.777812499999996 4.5421875 4.541250000000001 9.526875 9.230625 14.65875 14.067187500000001 32.196562500000006 30.240000000000002 76.2834375 71.7046875 77.28 135.3975 0.8128124999999999 53.390625-29.28 109.84593749999999-92.011875 172.5778125L554.24 803.3965625c-72.4434375 72.665625-134.4 112.6528125-194.9165625 125.76-14.622187499999999 3.1753125-29.0953125 4.7634375-43.45875 4.7634375z" p-id="20511"></path></svg>