<?xml version="1.0" standalone="no"?><!DOCTYPE svg PUBLIC "-//W3C//DTD SVG 1.1//EN" "http://www.w3.org/Graphics/SVG/1.1/DTD/svg11.dtd"><svg t="1510050957981" class="icon" style="" viewBox="0 0 1024 1024" version="1.1" xmlns="http://www.w3.org/2000/svg" p-id="12728" xmlns:xlink="http://www.w3.org/1999/xlink" width="16" height="16"><defs><style type="text/css"></style></defs><path d="M636.8 694.4l-249.6 0 0-21.6c11.2-4 22.4-7.2 33.6-10.4 11.2-3.2 23.2-5.6 36-7.2l0-436.8-95.2 0-40 104.8-18.4 0c-1.6-9.6-2.4-20.8-4-33.6s-1.6-24.8-2.4-38.4c-0.8-12.8-1.6-25.6-1.6-38.4s-0.8-24-0.8-33.6l435.2 0c0 9.6 0 20.8-0.8 32.8-0.8 12-0.8 24.8-1.6 37.6s-1.6 25.6-2.4 38.4-1.6 24-3.2 34.4l-20 0-39.2-104.8L568 217.6l0 436.8c12.8 2.4 24.8 4.8 36 7.2 11.2 2.4 22.4 5.6 32.8 10.4L636.8 694.4 636.8 694.4z" p-id="12729"></path><path d="M842.75 992h-668.25c-66 0-119.25-53.25-119.25-119.25v-715.5c0-66 54-125.25 120-125.25h673.5c66 0 120 54 120 120v720c0 66-60 120-126 120v0 0zM908.75 152c0-33-27-60-60-60h-673.5c-33 0-60.75 32.25-60.75 65.25v715.5c0 33 27 60 60 60h668.25c33 0 65.25-27.75 65.25-60v-720.75h0.75zM752 833h-480c-16.5 0-30-13.5-30-30s13.5-30 30-30h480c16.5 0 30 13.5 30 30s-13.5 30-30 30v0 0z" p-id="12730"></path></svg>