<?xml version="1.0" standalone="no"?><!DOCTYPE svg PUBLIC "-//W3C//DTD SVG 1.1//EN" "http://www.w3.org/Graphics/SVG/1.1/DTD/svg11.dtd"><svg t="1510150278516" class="icon" style="" viewBox="0 0 1025 1024" version="1.1" xmlns="http://www.w3.org/2000/svg" p-id="1521" xmlns:xlink="http://www.w3.org/1999/xlink" width="16.015625" height="16"><defs><style type="text/css"></style></defs><path d="M911.74844 63.504866c26.385825 0 47.78837 21.402546 47.788371 47.788371v800.263539a47.78837 47.78837 0 0 1-47.788371 47.78837h-799.944098a47.78837 47.78837 0 0 1-47.78837-47.78837v-800.263539c0-26.385825 21.402546-47.78837 47.78837-47.788371h799.944098m0-63.888195h-799.944098a111.804342 111.804342 0 0 0-111.676566 111.676566v800.263539a111.804342 111.804342 0 0 0 111.676566 111.676566h799.944098a111.804342 111.804342 0 0 0 111.676566-111.676566v-800.263539a111.804342 111.804342 0 0 0-111.676566-111.676566z" p-id="1522"></path><path d="M787.358123 588.601947l-160.551035-32.135763v-159.912154a38.332917 38.332917 0 0 0-38.26903-38.269029h-76.538058a38.269029 38.269029 0 0 0-38.269029 38.269029v191.281258h-76.538059a38.269029 38.269029 0 0 0-34.180184 55.327178l114.807087 229.550287a38.205141 38.205141 0 0 0 34.244073 21.146992h267.819316a38.269029 38.269029 0 0 0 38.26903-38.269029v-229.550287a38.332917 38.332917 0 0 0-30.794111-37.438482z" p-id="1523"></path><path d="M741.550287 128.798602h-459.100574a76.665835 76.665835 0 0 0-76.538058 76.538059v267.819316a76.665835 76.665835 0 0 0 76.538058 76.538058h114.807088v-76.538058h-114.807088v-267.819316h459.100574v267.819316h76.538058v-267.819316c0-42.230097-34.307961-76.538058-76.538058-76.538059z" p-id="1524"></path></svg>