<?xml version="1.0" standalone="no"?><!DOCTYPE svg PUBLIC "-//W3C//DTD SVG 1.1//EN" "http://www.w3.org/Graphics/SVG/1.1/DTD/svg11.dtd"><svg t="1510051215063" class="icon" style="" viewBox="0 0 1024 1024" version="1.1" xmlns="http://www.w3.org/2000/svg" p-id="17434" xmlns:xlink="http://www.w3.org/1999/xlink" width="16" height="16"><defs><style type="text/css"></style></defs><path d="M950.4 585.6H73.6c-41.6 0-73.6 32-73.6 73.6v291.2C0 992 32 1024 73.6 1024h876.8c41.6 0 73.6-32 73.6-73.6v-291.2c0-41.6-32-73.6-73.6-73.6z m0 364.8H73.6v-291.2h876.8v291.2z" p-id="17435"></path><path d="M876.8 732.8h-291.2l147.2 144zM950.4 0H73.6C32 0 0 32 0 73.6v291.2c0 41.6 32 73.6 73.6 73.6h876.8c41.6 0 73.6-32 73.6-73.6V73.6C1024 32 992 0 950.4 0z m0 364.8H73.6V73.6h876.8v291.2z" p-id="17436"></path><path d="M876.8 147.2h-291.2l147.2 144z" p-id="17437"></path></svg>