<?xml version="1.0" standalone="no"?><!DOCTYPE svg PUBLIC "-//W3C//DTD SVG 1.1//EN" "http://www.w3.org/Graphics/SVG/1.1/DTD/svg11.dtd"><svg t="1510051023281" class="icon" style="" viewBox="0 0 1024 1024" version="1.1" xmlns="http://www.w3.org/2000/svg" p-id="13752" xmlns:xlink="http://www.w3.org/1999/xlink" width="16" height="16"><defs><style type="text/css"></style></defs><path d="M512 85.333333c-235.642667 0-426.666667 191.026667-426.666667 426.666667s191.024 426.666667 426.666667 426.666667c235.64 0 426.666667-191.026667 426.666667-426.666667S747.64 85.333333 512 85.333333zM512 896c-212.08 0-384-171.925333-384-384 0-212.077333 171.92-384 384-384 212.074667 0 384 171.922667 384 384C896 724.074667 724.074667 896 512 896z" p-id="13753"></path><path d="M512 512m-234.666667 0a88 88 0 1 0 469.333333 0 88 88 0 1 0-469.333333 0Z" p-id="13754"></path></svg>