<?xml version="1.0" standalone="no"?><!DOCTYPE svg PUBLIC "-//W3C//DTD SVG 1.1//EN" "http://www.w3.org/Graphics/SVG/1.1/DTD/svg11.dtd"><svg t="1510068990573" class="icon" style="" viewBox="0 0 1024 1024" version="1.1" xmlns="http://www.w3.org/2000/svg" p-id="1257" xmlns:xlink="http://www.w3.org/1999/xlink" width="16" height="16"><defs><style type="text/css"></style></defs><path d="M729.008 806.496 295.008 806.496C140.912 806.496 16 681.584 16 527.504l0-31.008c0-154.08 124.912-278.992 279.008-278.992l434 0c154.08 0 279.008 124.912 279.008 278.992l0 31.008C1008 681.584 883.088 806.496 729.008 806.496zM946.96 496.768c0-119.696-97.04-216.736-216.736-216.736L294.384 280.032c-119.696 0-216.736 97.04-216.736 216.736l0 31.008c0 119.696 97.04 216.736 216.736 216.736L730.24 744.512c119.696 0 216.736-97.04 216.736-216.736L946.976 496.768zM702.32 672.576c-90.72 0-164.272-73.536-164.272-164.256 0-90.72 73.552-164.272 164.272-164.272 90.72 0 164.272 73.536 164.272 164.272C866.592 599.04 793.04 672.576 702.32 672.576z" p-id="1258"></path></svg>