<?xml version="1.0" standalone="no"?><!DOCTYPE svg PUBLIC "-//W3C//DTD SVG 1.1//EN" "http://www.w3.org/Graphics/SVG/1.1/DTD/svg11.dtd"><svg t="1510051253623" class="icon" style="" viewBox="0 0 1025 1024" version="1.1" xmlns="http://www.w3.org/2000/svg" p-id="18072" xmlns:xlink="http://www.w3.org/1999/xlink" width="16.015625" height="16"><defs><style type="text/css"></style></defs><path d="M278.4 52.8h-2.4c-17.6 0-31.2 14.4-31.2 31.2v165.6c0 17.6 14.4 31.2 31.2 31.2h2.4c17.6 0 31.2-14.4 31.2-31.2v-165.6c0-17.6-14.4-31.2-31.2-31.2zM632 52.8h-2.4c-17.6 0-31.2 14.4-31.2 31.2v165.6c0 17.6 14.4 31.2 31.2 31.2h2.4c17.6 0 31.2-14.4 31.2-31.2v-165.6c0-17.6-14.4-31.2-31.2-31.2zM243.2 373.6c-27.2 0-48.8 21.6-48.8 48.8 0 27.2 21.6 48.8 48.8 48.8 27.2 0 48.8-21.6 48.8-48.8 0-26.4-22.4-48.8-48.8-48.8zM438.4 373.6c-27.2 0-48.8 21.6-48.8 48.8 0 27.2 21.6 48.8 48.8 48.8 27.2 0 48.8-21.6 48.8-48.8 0-26.4-22.4-48.8-48.8-48.8zM665.6 373.6c-27.2 0-48.8 21.6-48.8 48.8 0 27.2 21.6 48.8 48.8 48.8s48.8-21.6 48.8-48.8c0-26.4-21.6-48.8-48.8-48.8zM243.2 568.8c-27.2 0-48.8 21.6-48.8 48.8 0 27.2 21.6 48.8 48.8 48.8 27.2 0 48.8-21.6 48.8-48.8 0-26.4-22.4-48.8-48.8-48.8zM438.4 568.8c-27.2 0-48.8 21.6-48.8 48.8 0 27.2 21.6 48.8 48.8 48.8 27.2 0 48.8-21.6 48.8-48.8 0-26.4-22.4-48.8-48.8-48.8z" fill="#6A6A6A" p-id="18073"></path><path d="M595.2 843.2h-522.4v-634.4h764V527.2c16.8 0.8 32.8 2.4 48.8 6.4 8 1.6 16 4 23.2 7.2h0.8v-332c0-40.8-32.8-72.8-72.8-72.8h-764c-40.8 0-72.8 32.8-72.8 72.8v634.4c0 40.8 32.8 72.8 72.8 72.8h560c-12-16-22.4-33.6-29.6-52-3.2-6.4-5.6-13.6-8-20.8z" fill="#6A6A6A" p-id="18074"></path><path d="M911.2 540.8c-15.2-9.6-32-17.6-48.8-24h-0.8c-8-2.4-15.2-4.8-23.2-7.2-16-4-32-5.6-48.8-6.4h-8.8c-135.2 0-244 108.8-244 244 0 24.8 4 49.6 11.2 72 2.4 7.2 4.8 14.4 8 20.8 8 18.4 17.6 36 29.6 52 5.6 7.2 11.2 14.4 17.6 20.8 44.8 48 108 77.6 178.4 77.6 134.4 0 244-109.6 244-244-1.6-85.6-46.4-162.4-114.4-205.6z m-131.2 377.6c-32.8 0-63.2-9.6-89.6-25.6-28-17.6-51.2-43.2-65.6-72.8-10.4-21.6-16-46.4-16-72 0-94.4 76.8-171.2 171.2-171.2 3.2 0 5.6 0 8.8 0.8 26.4 1.6 51.2 8.8 72.8 20.8 52.8 28.8 88.8 85.6 88.8 150.4 0.8 92.8-76 169.6-170.4 169.6z" fill="#6A6A6A" p-id="18075"></path><path d="M764.8 656h-0.8c-8.8 0-16 7.2-16 16v131.2c0 8.8 7.2 16 16 16h0.8c8.8 0 16-7.2 16-16V672c-0.8-9.6-8-16-16-16z" fill="#6A6A6A" p-id="18076"></path><path d="M870.4 786.4h-98.4c-8.8 0-16 7.2-16 16v0.8c0 8.8 7.2 16 16 16h98.4c8.8 0 16-7.2 16-16v-0.8c-0.8-8.8-7.2-16-16-16z" fill="#6A6A6A" p-id="18077"></path></svg>